# xmcd CD database file
#
# Track frame offsets:
#	150
#	26475
#	44859
#	61740
#	78357
#	98043
#	116082
#	133561
#	150612
#	166043
#	182534
#	198899
#
# Disc length: 2850 seconds
#
# Revision: 0
# Processed by: cddbd v1.5.1PL0 Copyright (c) Steve Scherf et al.
# Submitted via: CDex 1.51
#
DISCID=910b200c
DTITLE=明日香 - 明日香シングル
DYEAR=1900
DGENRE=JPop
TTITLE0=花ぬすびと
TTITLE1=２人で
TTITLE2=葉書
TTITLE3=ペパーミント キャンディー ラブ
TTITLE4=ブルーララバイ
TTITLE5=ロンリーララバイ
TTITLE6=卒業白書
TTITLE7=グラスタワー
TTITLE8=悲しいね
TTITLE9=君の心の童話
TTITLE10=震えるほどに愛
TTITLE11=おいら人間
EXTD=
EXTT0=
EXTT1=
EXTT2=
EXTT3=
EXTT4=
EXTT5=
EXTT6=
EXTT7=
EXTT8=
EXTT9=
EXTT10=
EXTT11=
PLAYORDER=
